<?xml version="1.0" encoding="UTF-8" standalone="no"?><svg xmlns="http://www.w3.org/2000/svg" xmlns:xlink="http://www.w3.org/1999/xlink" contentStyleType="text/css" height="603px" preserveAspectRatio="none" style="width:626px;height:603px;background:#FFFFFF;" version="1.1" viewBox="0 0 626 603" width="626px" zoomAndPan="magnify"><defs/><g><!--MD5=[9d5f03d0cfad2c65e140c9c03cf9fdc8]
cluster grpc-demo-api--><g id="cluster_grpc-demo-api"><path d="M8.5,6 L111.5,6 A3.75,3.75 0 0 1 114,8.5 L121,31.9404 L616.5,31.9404 A2.5,2.5 0 0 1 619,34.4404 L619,593.5 A2.5,2.5 0 0 1 616.5,596 L8.5,596 A2.5,2.5 0 0 1 6,593.5 L6,8.5 A2.5,2.5 0 0 1 8.5,6 " fill="none" style="stroke:#000000;stroke-width:1.5;"/><line style="stroke:#000000;stroke-width:1.5;" x1="6" x2="121" y1="31.9404" y2="31.9404"/><text fill="#000000" font-family="sans-serif" font-size="14" font-weight="bold" lengthAdjust="spacing" textLength="102" x="10" y="24.8643">grpc-demo-api</text></g><!--MD5=[979da56a7f83e2393dc758167ae295d0]
cluster Server--><g id="cluster_Server"><path d="M32.5,258 L81.5,258 A3.75,3.75 0 0 1 84,260.5 L91,283.9404 L592.5,283.9404 A2.5,2.5 0 0 1 595,286.4404 L595,569.5 A2.5,2.5 0 0 1 592.5,572 L32.5,572 A2.5,2.5 0 0 1 30,569.5 L30,260.5 A2.5,2.5 0 0 1 32.5,258 " fill="none" style="stroke:#000000;stroke-width:1.5;"/><line style="stroke:#000000;stroke-width:1.5;" x1="30" x2="91" y1="283.9404" y2="283.9404"/><text fill="#000000" font-family="sans-serif" font-size="14" font-weight="bold" lengthAdjust="spacing" textLength="48" x="34" y="276.8643">Server</text></g><!--MD5=[dd538f668af312f125747c46bbbc0c4b]
cluster proto--><g id="cluster_proto"><path d="M56.5,386 L95.5,386 A3.75,3.75 0 0 1 98,388.5 L105,411.9404 L568.5,411.9404 A2.5,2.5 0 0 1 571,414.4404 L571,545.5 A2.5,2.5 0 0 1 568.5,548 L56.5,548 A2.5,2.5 0 0 1 54,545.5 L54,388.5 A2.5,2.5 0 0 1 56.5,386 " fill="none" style="stroke:#000000;stroke-width:1.5;"/><line style="stroke:#000000;stroke-width:1.5;" x1="54" x2="105" y1="411.9404" y2="411.9404"/><text fill="#000000" font-family="sans-serif" font-size="14" font-weight="bold" lengthAdjust="spacing" textLength="38" x="58" y="404.8643">proto</text></g><!--MD5=[406b65fecc21e832f7a9b6ebadc6dce1]
cluster Client--><g id="cluster_Client"><path d="M80.5,52 L122.5,52 A3.75,3.75 0 0 1 125,54.5 L132,77.9404 L543.5,77.9404 A2.5,2.5 0 0 1 546,80.4404 L546,231.5 A2.5,2.5 0 0 1 543.5,234 L80.5,234 A2.5,2.5 0 0 1 78,231.5 L78,54.5 A2.5,2.5 0 0 1 80.5,52 " fill="none" style="stroke:#000000;stroke-width:1.5;"/><line style="stroke:#000000;stroke-width:1.5;" x1="78" x2="132" y1="77.9404" y2="77.9404"/><text fill="#000000" font-family="sans-serif" font-size="14" font-weight="bold" lengthAdjust="spacing" textLength="41" x="82" y="70.8643">Client</text></g><!--MD5=[36d292b0dca2b11c374f40353b5ef213]
class GreetingService--><g id="elem_GreetingService"><rect codeLine="4" fill="#F1F1F1" height="67.9404" id="GreetingService" rx="2.5" ry="2.5" style="stroke:#181818;stroke-width:0.5;" width="332" x="146" y="296"/><ellipse cx="256.75" cy="312" fill="#ADD1B2" rx="11" ry="11" style="stroke:#181818;stroke-width:1.0;"/><path d="M260.9531,316.1719 Q260.4844,316.9844 259.5938,317.6719 Q258.1094,318.7344 256.2969,318.7344 Q254,318.7344 252.4531,317.1875 Q250.6719,315.4063 250.6719,312.1094 Q250.6719,309.0625 252.4375,307.1875 Q254.0625,305.4844 256.3906,305.4844 Q257.3125,305.4844 258.3281,305.7969 Q259.2656,306.125 259.2656,306.0781 Q259.5,306.0781 259.625,305.5313 L260.5313,305.4688 L260.6719,309.9844 L259.8594,310.0625 Q259.0469,306.5469 256.5313,306.5469 Q255.7969,306.5469 255.0313,306.8125 Q254.1875,307.1406 253.7188,307.625 Q252.4063,309.0938 252.3906,312.1406 Q252.375,314.8125 253.8281,316.2969 Q255.0469,317.5469 256.7656,317.5469 Q258.6719,317.5469 260.4531,315.4531 L260.9531,316.1719 Z " fill="#000000"/><text fill="#000000" font-family="sans-serif" font-size="14" lengthAdjust="spacing" textLength="102" x="277.25" y="318.894">GreetingService</text><line style="stroke:#181818;stroke-width:0.5;" x1="147" x2="477" y1="328" y2="328"/><line style="stroke:#181818;stroke-width:0.5;" x1="147" x2="477" y1="336" y2="336"/><ellipse cx="157" cy="351.4702" fill="#84BE84" rx="3" ry="3" style="stroke:#038048;stroke-width:1.0;"/><text fill="#000000" font-family="sans-serif" font-size="14" lengthAdjust="spacing" textLength="306" x="166" y="356.8643">sayHello(request: HelloRequest): HelloResponse</text></g><!--MD5=[784dd08a07b83ec01e23f308f2ca3ec9]
class HelloRequest--><g id="elem_HelloRequest"><rect codeLine="9" fill="#F1F1F1" height="107.8213" id="HelloRequest" rx="2.5" ry="2.5" style="stroke:#181818;stroke-width:0.5;" width="203" x="351.5" y="424"/><ellipse cx="406.75" cy="440" fill="#ADD1B2" rx="11" ry="11" style="stroke:#181818;stroke-width:1.0;"/><path d="M410.9531,444.1719 Q410.4844,444.9844 409.5938,445.6719 Q408.1094,446.7344 406.2969,446.7344 Q404,446.7344 402.4531,445.1875 Q400.6719,443.4063 400.6719,440.1094 Q400.6719,437.0625 402.4375,435.1875 Q404.0625,433.4844 406.3906,433.4844 Q407.3125,433.4844 408.3281,433.7969 Q409.2656,434.125 409.2656,434.0781 Q409.5,434.0781 409.625,433.5313 L410.5313,433.4688 L410.6719,437.9844 L409.8594,438.0625 Q409.0469,434.5469 406.5313,434.5469 Q405.7969,434.5469 405.0313,434.8125 Q404.1875,435.1406 403.7188,435.625 Q402.4063,437.0938 402.3906,440.1406 Q402.375,442.8125 403.8281,444.2969 Q405.0469,445.5469 406.7656,445.5469 Q408.6719,445.5469 410.4531,443.4531 L410.9531,444.1719 Z " fill="#000000"/><text fill="#000000" font-family="sans-serif" font-size="14" lengthAdjust="spacing" textLength="84" x="427.25" y="446.894">HelloRequest</text><line style="stroke:#181818;stroke-width:0.5;" x1="352.5" x2="553.5" y1="456" y2="456"/><rect fill="none" height="6" style="stroke:#C82930;stroke-width:1.0;" width="6" x="359.5" y="468.4702"/><text fill="#000000" font-family="sans-serif" font-size="14" lengthAdjust="spacing" textLength="78" x="371.5" y="476.8643">name: string</text><line style="stroke:#181818;stroke-width:0.5;" x1="352.5" x2="553.5" y1="483.9404" y2="483.9404"/><ellipse cx="362.5" cy="499.4106" fill="#84BE84" rx="3" ry="3" style="stroke:#038048;stroke-width:1.0;"/><text fill="#000000" font-family="sans-serif" font-size="14" lengthAdjust="spacing" textLength="109" x="371.5" y="504.8047">getName(): string</text><ellipse cx="362.5" cy="519.3511" fill="#84BE84" rx="3" ry="3" style="stroke:#038048;stroke-width:1.0;"/><text fill="#000000" font-family="sans-serif" font-size="14" lengthAdjust="spacing" textLength="177" x="371.5" y="524.7451">setName(name: string): void</text></g><!--MD5=[3e47fb35c6ed6ad1c4cf075f139978d4]
class HelloResponse--><g id="elem_HelloResponse"><rect codeLine="15" fill="#F1F1F1" height="107.8213" id="HelloResponse" rx="2.5" ry="2.5" style="stroke:#181818;stroke-width:0.5;" width="246" x="70" y="424"/><ellipse cx="141.25" cy="440" fill="#ADD1B2" rx="11" ry="11" style="stroke:#181818;stroke-width:1.0;"/><path d="M145.4531,444.1719 Q144.9844,444.9844 144.0938,445.6719 Q142.6094,446.7344 140.7969,446.7344 Q138.5,446.7344 136.9531,445.1875 Q135.1719,443.4063 135.1719,440.1094 Q135.1719,437.0625 136.9375,435.1875 Q138.5625,433.4844 140.8906,433.4844 Q141.8125,433.4844 142.8281,433.7969 Q143.7656,434.125 143.7656,434.0781 Q144,434.0781 144.125,433.5313 L145.0313,433.4688 L145.1719,437.9844 L144.3594,438.0625 Q143.5469,434.5469 141.0313,434.5469 Q140.2969,434.5469 139.5313,434.8125 Q138.6875,435.1406 138.2188,435.625 Q136.9063,437.0938 136.8906,440.1406 Q136.875,442.8125 138.3281,444.2969 Q139.5469,445.5469 141.2656,445.5469 Q143.1719,445.5469 144.9531,443.4531 L145.4531,444.1719 Z " fill="#000000"/><text fill="#000000" font-family="sans-serif" font-size="14" lengthAdjust="spacing" textLength="95" x="161.75" y="446.894">HelloResponse</text><line style="stroke:#181818;stroke-width:0.5;" x1="71" x2="315" y1="456" y2="456"/><rect fill="none" height="6" style="stroke:#C82930;stroke-width:1.0;" width="6" x="78" y="468.4702"/><text fill="#000000" font-family="sans-serif" font-size="14" lengthAdjust="spacing" textLength="100" x="90" y="476.8643">message: string</text><line style="stroke:#181818;stroke-width:0.5;" x1="71" x2="315" y1="483.9404" y2="483.9404"/><ellipse cx="81" cy="499.4106" fill="#84BE84" rx="3" ry="3" style="stroke:#038048;stroke-width:1.0;"/><text fill="#000000" font-family="sans-serif" font-size="14" lengthAdjust="spacing" textLength="130" x="90" y="504.8047">getMessage(): string</text><ellipse cx="81" cy="519.3511" fill="#84BE84" rx="3" ry="3" style="stroke:#038048;stroke-width:1.0;"/><text fill="#000000" font-family="sans-serif" font-size="14" lengthAdjust="spacing" textLength="220" x="90" y="524.7451">setMessage(message: string): void</text></g><!--MD5=[f672e1adbdc3cb83f8630120c3acdeb2]
class GreetingClient--><g id="elem_GreetingClient"><rect codeLine="27" fill="#F1F1F1" height="127.7617" id="GreetingClient" rx="2.5" ry="2.5" style="stroke:#181818;stroke-width:0.5;" width="436" x="94" y="90"/><ellipse cx="262.25" cy="106" fill="#ADD1B2" rx="11" ry="11" style="stroke:#181818;stroke-width:1.0;"/><path d="M266.4531,110.1719 Q265.9844,110.9844 265.0938,111.6719 Q263.6094,112.7344 261.7969,112.7344 Q259.5,112.7344 257.9531,111.1875 Q256.1719,109.4063 256.1719,106.1094 Q256.1719,103.0625 257.9375,101.1875 Q259.5625,99.4844 261.8906,99.4844 Q262.8125,99.4844 263.8281,99.7969 Q264.7656,100.125 264.7656,100.0781 Q265,100.0781 265.125,99.5313 L266.0313,99.4688 L266.1719,103.9844 L265.3594,104.0625 Q264.5469,100.5469 262.0313,100.5469 Q261.2969,100.5469 260.5313,100.8125 Q259.6875,101.1406 259.2188,101.625 Q257.9063,103.0938 257.8906,106.1406 Q257.875,108.8125 259.3281,110.2969 Q260.5469,111.5469 262.2656,111.5469 Q264.1719,111.5469 265.9531,109.4531 L266.4531,110.1719 Z " fill="#000000"/><text fill="#000000" font-family="sans-serif" font-size="14" lengthAdjust="spacing" textLength="91" x="282.75" y="112.894">GreetingClient</text><line style="stroke:#181818;stroke-width:0.5;" x1="95" x2="529" y1="122" y2="122"/><rect fill="none" height="6" style="stroke:#C82930;stroke-width:1.0;" width="6" x="102" y="134.4702"/><text fill="#000000" font-family="sans-serif" font-size="14" lengthAdjust="spacing" textLength="170" x="114" y="142.8643">channel: ManagedChannel</text><rect fill="none" height="6" style="stroke:#C82930;stroke-width:1.0;" width="6" x="102" y="154.4106"/><text fill="#000000" font-family="sans-serif" font-size="14" lengthAdjust="spacing" textLength="410" x="114" y="162.8047">blockingStub: GreetingServiceGrpc.GreetingServiceBlockingStub</text><line style="stroke:#181818;stroke-width:0.5;" x1="95" x2="529" y1="169.8809" y2="169.8809"/><ellipse cx="105" cy="185.3511" fill="#84BE84" rx="3" ry="3" style="stroke:#038048;stroke-width:1.0;"/><text fill="#000000" font-family="sans-serif" font-size="14" lengthAdjust="spacing" textLength="175" x="114" y="190.7451">sayHello(name: string): void</text><ellipse cx="105" cy="205.2915" fill="#84BE84" rx="3" ry="3" style="stroke:#038048;stroke-width:1.0;"/><text fill="#000000" font-family="sans-serif" font-size="14" lengthAdjust="spacing" textLength="104" x="114" y="210.6855">shutdown(): void</text></g><!--MD5=[09ca6dcfbcab17b7008d08936b54eebc]
link GreetingService to HelloRequest--><g id="link_GreetingService_HelloRequest"><path codeLine="22" d="M344,364.13 C359.99,380.69 379.8,401.21 398.13,420.18 " fill="none" id="GreetingService-to-HelloRequest" style="stroke:#181818;stroke-width:1.0;"/><polygon fill="#181818" points="401.77,423.96,398.4022,414.7049,398.2993,420.3608,392.6434,420.2579,401.77,423.96" style="stroke:#181818;stroke-width:1.0;"/></g><!--MD5=[cbcca5b4a5e389d3da5e919468729897]
link GreetingService to HelloResponse--><g id="link_GreetingService_HelloResponse"><path codeLine="23" d="M285,364.13 C271.61,380.56 255.05,400.87 239.7,419.71 " fill="none" id="GreetingService-to-HelloResponse" style="stroke:#181818;stroke-width:1.0;"/><polygon fill="#181818" points="236.23,423.96,245.0178,419.5132,239.39,420.0851,238.818,414.4573,236.23,423.96" style="stroke:#181818;stroke-width:1.0;"/></g><!--MD5=[ed9d966266b6bc8b55287f3dd6de4762]
link GreetingClient to GreetingService--><g id="link_GreetingClient_GreetingService"><path codeLine="36" d="M312,218.31 C312,242.5 312,269.33 312,290.51 " fill="none" id="GreetingClient-to-GreetingService" style="stroke:#181818;stroke-width:1.0;"/><polygon fill="#181818" points="312,295.77,316,286.77,312,290.77,308,286.77,312,295.77" style="stroke:#181818;stroke-width:1.0;"/></g><!--MD5=[f946ee00680a212be03e8f90d65a2ff8]
@startuml

package "grpc-demo-api" {
  package "Server" {
    class GreetingService {
      +sayHello(request: HelloRequest): HelloResponse
    }

    package "proto" {
      class HelloRequest {
        -name: string
        +getName(): string
        +setName(name: string): void
      }

      class HelloResponse {
        -message: string
        +getMessage(): string
        +setMessage(message: string): void
      }
    }

    GreetingService - -> HelloRequest
    GreetingService - -> HelloResponse
  }

  package "Client" {
    class GreetingClient {
      -channel: ManagedChannel
      -blockingStub: GreetingServiceGrpc.GreetingServiceBlockingStub
      +sayHello(name: string): void
      +shutdown(): void
    }
  }
}

GreetingClient - -> GreetingService

@enduml

PlantUML version 1.2022.7(Tue Aug 23 01:01:30 CST 2022)
(GPL source distribution)
Java Runtime: Java(TM) SE Runtime Environment
JVM: Java HotSpot(TM) 64-Bit Server VM
Default Encoding: MS950
Language: zh
Country: TW
--></g></svg>